<svg width="1200" height="420" viewBox="0 0 1200 420" fill="none" xmlns="http://www.w3.org/2000/svg">
  <rect width="1200" height="420" fill="#050505"/>
  <path d="M86 335C143 273 177 210 180 144C182 110 171 81 145 56" stroke="#C7A15A" stroke-width="3"/>
  <path d="M162 52C128 68 106 100 104 137C101 175 126 207 162 222C182 230 208 229 228 218" stroke="#C7A15A" stroke-width="2.5"/>
  <path d="M174 73C151 89 140 112 140 139C140 165 154 186 177 199" stroke="#C7A15A" stroke-width="2"/>
  <text x="260" y="184" fill="#D8B46A" font-family="'Cormorant Garamond', serif" font-size="130" letter-spacing="16">MAVE</text>
  <text x="264" y="246" fill="#B18A47" font-family="'Manrope', sans-serif" font-size="32" letter-spacing="8">MOLECULAR COSMETICS</text>
  <path d="M264 276H1040" stroke="#C7A15A" stroke-width="2"/>
  <path d="M1034 110C1072 127 1094 158 1098 194C1102 239 1080 282 1030 316" stroke="#C7A15A" stroke-width="3"/>
  <path d="M996 93C1031 104 1061 127 1082 154" stroke="#C7A15A" stroke-width="2"/>
  <path d="M976 76C1006 77 1032 86 1057 104" stroke="#C7A15A" stroke-width="2"/>
</svg>
