<?xml version="1.0" encoding="utf-8"?>
<!-- Generator: Adobe Illustrator 26.1.0, SVG Export Plug-In . SVG Version: 6.00 Build 0)  -->
<svg version="1.1" id="Ebene_1" xmlns="http://www.w3.org/2000/svg" xmlns:xlink="http://www.w3.org/1999/xlink" x="0px" y="0px"
	 viewBox="0 0 841.89 595.28" style="enable-background:new 0 0 841.89 595.28;" xml:space="preserve">
<style type="text/css">
	.st0{fill:#4E523A;}
</style>
<g>
	<g>
		<g>
			<g>
				<g>
					<polygon class="st0" points="268.92,176.66 309.15,176.66 309.15,332.98 283,332.98 283,203.82 221.44,332.98 187.25,332.98 
						125.68,203.82 125.68,332.98 99.53,332.98 99.53,176.66 139.77,176.66 204.34,315.87 					"/>
					<polygon class="st0" points="491.14,332.94 490.81,332.94 468.72,283.29 468.84,283.29 					"/>
					<path class="st0" d="M569.22,176.63l-58.99,137.09l-0.96,2.18l-24.99-58.16l-37.6-81.1h-43.05l-72.39,156.31h27.74l22.36-49.65
						h87.51l22.3,49.65h36.64l69.44-156.31H569.22z M389.15,266.19l32.61-72.45h7.04l25.63,57.4l6.72,15.05H389.15z"/>
					<polygon class="st0" points="619.3,176.66 737.18,176.66 737.18,193.77 645.45,193.77 645.45,246.06 731.55,246.06 
						731.55,263.17 645.45,263.17 645.45,315.87 743.01,315.87 743.01,332.98 619.3,332.98 					"/>
				</g>
			</g>
		</g>
	</g>
	<g>
		<path class="st0" d="M108.23,378.71l11.49,30.52l11.46-30.52h8.94v39.82h-6.89V405.4l0.68-17.56l-11.76,30.68h-4.95l-11.73-30.66
			l0.68,17.53v13.13h-6.89v-39.82H108.23z"/>
		<path class="st0" d="M180.07,399.65c0,3.03-0.39,5.74-1.19,8.14c-0.79,2.4-1.91,4.43-3.35,6.1c-1.44,1.67-3.17,2.95-5.2,3.84
			c-2.02,0.89-4.27,1.34-6.73,1.34c-2.44,0-4.68-0.45-6.7-1.34c-2.02-0.89-3.77-2.17-5.23-3.84c-1.47-1.67-2.61-3.7-3.42-6.1
			c-0.81-2.4-1.22-5.11-1.22-8.14v-2.02c0-3.03,0.4-5.74,1.22-8.15c0.81-2.41,1.94-4.45,3.39-6.13c1.45-1.68,3.19-2.96,5.21-3.86
			c2.02-0.89,4.26-1.34,6.7-1.34c2.46,0,4.71,0.45,6.74,1.34c2.03,0.9,3.77,2.18,5.22,3.86c1.45,1.68,2.57,3.72,3.37,6.13
			c0.79,2.41,1.19,5.12,1.19,8.15V399.65z M173.15,397.57c0-2.22-0.21-4.19-0.64-5.89c-0.43-1.7-1.05-3.13-1.87-4.28
			c-0.82-1.15-1.83-2.02-3.02-2.61c-1.2-0.59-2.55-0.89-4.06-0.89c-1.48,0-2.81,0.3-4,0.89c-1.18,0.59-2.19,1.46-3.02,2.61
			c-0.83,1.15-1.47,2.58-1.91,4.28c-0.45,1.71-0.67,3.67-0.67,5.89v2.08c0,2.23,0.22,4.19,0.67,5.91c0.44,1.71,1.09,3.15,1.93,4.31
			c0.84,1.16,1.86,2.04,3.05,2.63c1.19,0.59,2.53,0.89,4.01,0.89c3.06,0,5.42-1.17,7.07-3.5c1.65-2.33,2.47-5.74,2.47-10.23V397.57z
			"/>
		<path class="st0" d="M193.88,413h18.08v5.52h-24.99v-39.82h6.92V413z"/>
		<path class="st0" d="M240.54,400.75h-16.36V413h19.12v5.52h-26.03v-39.82h25.84v5.58h-18.92v10.99h16.36V400.75z"/>
		<path class="st0" d="M279.31,405.56c-0.18,1.95-0.64,3.75-1.36,5.4c-0.73,1.65-1.74,3.07-3.04,4.28c-1.3,1.2-2.88,2.14-4.75,2.82
			c-1.87,0.67-4.02,1.01-6.47,1.01c-2.44,0-4.65-0.44-6.63-1.33c-1.98-0.89-3.67-2.14-5.06-3.78c-1.4-1.63-2.47-3.6-3.21-5.92
			c-0.75-2.32-1.12-4.91-1.12-7.79v-3.22c0-2.86,0.38-5.46,1.15-7.78c0.77-2.32,1.86-4.31,3.28-5.95s3.14-2.91,5.16-3.8
			c2.01-0.89,4.27-1.34,6.77-1.34c2.37,0,4.47,0.34,6.29,1.02c1.82,0.69,3.37,1.63,4.64,2.84c1.27,1.22,2.26,2.66,2.98,4.34
			c0.72,1.68,1.18,3.51,1.38,5.5h-6.89c-0.15-1.26-0.4-2.39-0.75-3.39c-0.36-1-0.86-1.86-1.52-2.56s-1.49-1.23-2.49-1.6
			c-1-0.36-2.22-0.55-3.64-0.55c-1.57,0-2.94,0.3-4.12,0.89c-1.17,0.59-2.15,1.45-2.94,2.57c-0.79,1.12-1.37,2.5-1.76,4.14
			c-0.39,1.64-0.59,3.51-0.59,5.61v3.28c0,1.99,0.17,3.79,0.52,5.42c0.35,1.62,0.88,3.01,1.61,4.17c0.73,1.16,1.67,2.06,2.81,2.7
			c1.15,0.64,2.53,0.96,4.13,0.96c1.5,0,2.76-0.18,3.79-0.52c1.03-0.35,1.88-0.85,2.56-1.53c0.67-0.67,1.2-1.51,1.57-2.49
			c0.38-0.99,0.64-2.12,0.81-3.39H279.31z"/>
		<path class="st0" d="M314.62,378.71v26.63c0,2.28-0.39,4.27-1.16,5.99s-1.84,3.14-3.19,4.29c-1.35,1.15-2.93,2.01-4.73,2.58
			c-1.81,0.58-3.74,0.86-5.8,0.86c-2.14,0-4.11-0.29-5.92-0.86c-1.82-0.58-3.39-1.43-4.72-2.58c-1.33-1.15-2.37-2.58-3.12-4.29
			c-0.75-1.71-1.12-3.71-1.12-5.99v-26.63h6.89v26.63c0,1.42,0.19,2.65,0.56,3.68c0.38,1.03,0.91,1.88,1.6,2.56
			c0.69,0.67,1.53,1.17,2.52,1.49c0.99,0.32,2.09,0.48,3.31,0.48c1.22,0,2.33-0.16,3.32-0.48c1-0.32,1.83-0.82,2.52-1.49
			c0.68-0.67,1.21-1.53,1.58-2.56c0.38-1.03,0.56-2.25,0.56-3.68v-26.63H314.62z"/>
		<path class="st0" d="M328.92,413H347v5.52H322v-39.82h6.92V413z"/>
		<path class="st0" d="M374.59,409.25h-15.42l-3.23,9.27h-7.19l15.04-39.82H370l15.07,39.82h-7.22L374.59,409.25z M361.11,403.67
			h11.54l-5.77-16.52L361.11,403.67z"/>
		<path class="st0" d="M404.21,403.18h-7.71v15.34h-6.92v-39.82h14c2.28,0,4.31,0.26,6.1,0.78c1.79,0.52,3.3,1.28,4.53,2.3
			s2.16,2.27,2.8,3.76c0.64,1.5,0.96,3.23,0.96,5.2c0,2.66-0.64,4.89-1.93,6.69c-1.29,1.79-3.08,3.18-5.38,4.14l8.94,16.6v0.36
			h-7.41L404.21,403.18z M396.5,397.63h7.11c1.24,0,2.32-0.16,3.26-0.49c0.93-0.33,1.7-0.78,2.32-1.36c0.62-0.59,1.09-1.28,1.4-2.08
			c0.31-0.8,0.46-1.68,0.46-2.65c0-1.02-0.15-1.95-0.44-2.78c-0.29-0.83-0.74-1.54-1.34-2.14c-0.6-0.59-1.37-1.05-2.31-1.36
			c-0.94-0.32-2.07-0.48-3.38-0.48h-7.09V397.63z"/>
		<path class="st0" d="M468.86,405.56c-0.18,1.95-0.64,3.75-1.36,5.4c-0.73,1.65-1.74,3.07-3.04,4.28c-1.3,1.2-2.88,2.14-4.75,2.82
			c-1.87,0.67-4.02,1.01-6.47,1.01c-2.44,0-4.65-0.44-6.63-1.33c-1.98-0.89-3.67-2.14-5.06-3.78c-1.4-1.63-2.47-3.6-3.21-5.92
			c-0.75-2.32-1.12-4.91-1.12-7.79v-3.22c0-2.86,0.38-5.46,1.15-7.78c0.77-2.32,1.86-4.31,3.28-5.95c1.42-1.64,3.14-2.91,5.16-3.8
			c2.01-0.89,4.27-1.34,6.77-1.34c2.37,0,4.47,0.34,6.29,1.02c1.82,0.69,3.37,1.63,4.64,2.84c1.27,1.22,2.26,2.66,2.98,4.34
			c0.72,1.68,1.18,3.51,1.38,5.5h-6.89c-0.15-1.26-0.4-2.39-0.75-3.39c-0.36-1-0.86-1.86-1.52-2.56s-1.49-1.23-2.49-1.6
			c-1-0.36-2.22-0.55-3.64-0.55c-1.57,0-2.94,0.3-4.12,0.89c-1.17,0.59-2.15,1.45-2.94,2.57c-0.79,1.12-1.37,2.5-1.76,4.14
			c-0.39,1.64-0.59,3.51-0.59,5.61v3.28c0,1.99,0.17,3.79,0.52,5.42c0.35,1.62,0.88,3.01,1.61,4.17c0.73,1.16,1.67,2.06,2.81,2.7
			c1.15,0.64,2.53,0.96,4.13,0.96c1.5,0,2.76-0.18,3.79-0.52c1.03-0.35,1.88-0.85,2.56-1.53c0.67-0.67,1.2-1.51,1.57-2.49
			c0.38-0.99,0.64-2.12,0.81-3.39H468.86z"/>
		<path class="st0" d="M506.82,399.65c0,3.03-0.39,5.74-1.19,8.14c-0.79,2.4-1.91,4.43-3.35,6.1c-1.44,1.67-3.17,2.95-5.2,3.84
			c-2.02,0.89-4.27,1.34-6.73,1.34c-2.44,0-4.68-0.45-6.7-1.34c-2.02-0.89-3.77-2.17-5.23-3.84c-1.47-1.67-2.61-3.7-3.42-6.1
			c-0.81-2.4-1.22-5.11-1.22-8.14v-2.02c0-3.03,0.4-5.74,1.22-8.15c0.81-2.41,1.94-4.45,3.39-6.13c1.45-1.68,3.19-2.96,5.21-3.86
			c2.02-0.89,4.26-1.34,6.7-1.34c2.46,0,4.71,0.45,6.74,1.34c2.03,0.9,3.77,2.18,5.22,3.86c1.45,1.68,2.57,3.72,3.37,6.13
			c0.79,2.41,1.19,5.12,1.19,8.15V399.65z M499.9,397.57c0-2.22-0.21-4.19-0.64-5.89c-0.43-1.7-1.05-3.13-1.87-4.28
			c-0.82-1.15-1.83-2.02-3.02-2.61c-1.2-0.59-2.55-0.89-4.06-0.89c-1.48,0-2.81,0.3-4,0.89c-1.18,0.59-2.19,1.46-3.02,2.61
			c-0.83,1.15-1.47,2.58-1.91,4.28c-0.45,1.71-0.67,3.67-0.67,5.89v2.08c0,2.23,0.22,4.19,0.67,5.91c0.44,1.71,1.09,3.15,1.93,4.31
			c0.84,1.16,1.86,2.04,3.05,2.63c1.19,0.59,2.53,0.89,4.01,0.89c3.06,0,5.42-1.17,7.07-3.5c1.65-2.33,2.47-5.74,2.47-10.23V397.57z
			"/>
		<path class="st0" d="M534.52,408.27c0-0.8-0.12-1.52-0.36-2.15s-0.67-1.21-1.3-1.74c-0.63-0.53-1.5-1.03-2.6-1.52
			c-1.1-0.48-2.52-0.99-4.26-1.51c-1.89-0.57-3.65-1.22-5.25-1.94c-1.61-0.73-2.99-1.58-4.14-2.54c-1.16-0.97-2.06-2.08-2.72-3.34
			c-0.66-1.26-0.99-2.7-0.99-4.32c0-1.61,0.34-3.08,1.02-4.43c0.69-1.35,1.64-2.52,2.89-3.5c1.24-0.99,2.73-1.75,4.46-2.3
			c1.73-0.55,3.65-0.82,5.74-0.82c2.24,0,4.26,0.32,6.05,0.97c1.79,0.65,3.29,1.53,4.52,2.64c1.23,1.11,2.17,2.4,2.83,3.87
			c0.66,1.47,0.99,3.03,0.99,4.69h-6.89c0-0.97-0.15-1.86-0.45-2.66c-0.3-0.81-0.76-1.51-1.38-2.11c-0.62-0.59-1.4-1.05-2.35-1.38
			c-0.95-0.33-2.07-0.49-3.36-0.49c-1.22,0-2.28,0.13-3.17,0.41c-0.89,0.27-1.64,0.66-2.23,1.15c-0.59,0.49-1.03,1.08-1.31,1.75
			c-0.28,0.67-0.43,1.4-0.43,2.19c0,1.48,0.7,2.71,2.09,3.69c1.4,0.99,3.52,1.9,6.39,2.74c2.24,0.66,4.18,1.38,5.82,2.19
			c1.64,0.81,3,1.71,4.09,2.72c1.09,1.01,1.89,2.15,2.42,3.42c0.53,1.27,0.79,2.69,0.79,4.28c0,1.68-0.33,3.19-1,4.52
			c-0.67,1.34-1.61,2.48-2.84,3.42s-2.72,1.66-4.47,2.16c-1.75,0.5-3.7,0.75-5.85,0.75c-1.92,0-3.8-0.26-5.66-0.78
			c-1.86-0.52-3.53-1.3-5-2.35s-2.67-2.36-3.57-3.93s-1.35-3.41-1.35-5.52h6.92c0,1.26,0.23,2.33,0.67,3.24
			c0.45,0.9,1.06,1.64,1.83,2.22c0.77,0.57,1.69,0.99,2.75,1.26c1.06,0.26,2.2,0.39,3.42,0.39c2.4,0,4.21-0.49,5.43-1.46
			C533.92,411.16,534.52,409.87,534.52,408.27z"/>
		<path class="st0" d="M556.48,378.71l11.49,30.52l11.46-30.52h8.94v39.82h-6.89V405.4l0.68-17.56l-11.76,30.68h-4.95l-11.73-30.66
			l0.68,17.53v13.13h-6.89v-39.82H556.48z"/>
		<path class="st0" d="M619.82,400.75h-16.36V413h19.12v5.52h-26.03v-39.82h25.84v5.58h-18.92v10.99h16.36V400.75z"/>
		<path class="st0" d="M656.98,384.29h-12.41v34.24h-6.86v-34.24H625.4v-5.58h31.58V384.29z"/>
		<path class="st0" d="M669.51,418.52h-6.89v-39.82h6.89V418.52z"/>
		<path class="st0" d="M708.4,405.56c-0.18,1.95-0.64,3.75-1.36,5.4c-0.73,1.65-1.74,3.07-3.04,4.28c-1.3,1.2-2.88,2.14-4.75,2.82
			c-1.87,0.67-4.02,1.01-6.47,1.01c-2.44,0-4.65-0.44-6.63-1.33c-1.98-0.89-3.67-2.14-5.06-3.78c-1.4-1.63-2.47-3.6-3.21-5.92
			c-0.75-2.32-1.12-4.91-1.12-7.79v-3.22c0-2.86,0.38-5.46,1.15-7.78c0.77-2.32,1.86-4.31,3.28-5.95s3.14-2.91,5.16-3.8
			c2.01-0.89,4.27-1.34,6.77-1.34c2.37,0,4.47,0.34,6.29,1.02c1.82,0.69,3.37,1.63,4.64,2.84c1.27,1.22,2.26,2.66,2.98,4.34
			c0.72,1.68,1.18,3.51,1.38,5.5h-6.89c-0.15-1.26-0.4-2.39-0.75-3.39c-0.36-1-0.86-1.86-1.52-2.56c-0.66-0.7-1.49-1.23-2.49-1.6
			c-1-0.36-2.22-0.55-3.64-0.55c-1.57,0-2.94,0.3-4.12,0.89c-1.17,0.59-2.15,1.45-2.94,2.57c-0.79,1.12-1.37,2.5-1.76,4.14
			c-0.39,1.64-0.59,3.51-0.59,5.61v3.28c0,1.99,0.17,3.79,0.52,5.42c0.35,1.62,0.88,3.01,1.61,4.17c0.73,1.16,1.67,2.06,2.81,2.7
			c1.15,0.64,2.53,0.96,4.13,0.96c1.5,0,2.76-0.18,3.79-0.52c1.03-0.35,1.88-0.85,2.56-1.53c0.67-0.67,1.2-1.51,1.57-2.49
			c0.38-0.99,0.64-2.12,0.81-3.39H708.4z"/>
		<path class="st0" d="M735.39,408.27c0-0.8-0.12-1.52-0.36-2.15c-0.24-0.63-0.67-1.21-1.3-1.74c-0.63-0.53-1.5-1.03-2.6-1.52
			c-1.1-0.48-2.52-0.99-4.26-1.51c-1.89-0.57-3.65-1.22-5.25-1.94c-1.61-0.73-2.99-1.58-4.14-2.54c-1.16-0.97-2.06-2.08-2.72-3.34
			c-0.66-1.26-0.99-2.7-0.99-4.32c0-1.61,0.34-3.08,1.02-4.43c0.69-1.35,1.64-2.52,2.89-3.5c1.24-0.99,2.73-1.75,4.46-2.3
			c1.73-0.55,3.65-0.82,5.74-0.82c2.24,0,4.26,0.32,6.05,0.97c1.79,0.65,3.29,1.53,4.52,2.64c1.23,1.11,2.17,2.4,2.83,3.87
			c0.66,1.47,0.99,3.03,0.99,4.69h-6.89c0-0.97-0.15-1.86-0.45-2.66c-0.3-0.81-0.76-1.51-1.38-2.11c-0.62-0.59-1.4-1.05-2.35-1.38
			c-0.95-0.33-2.07-0.49-3.36-0.49c-1.22,0-2.28,0.13-3.17,0.41c-0.89,0.27-1.64,0.66-2.23,1.15c-0.59,0.49-1.03,1.08-1.31,1.75
			c-0.28,0.67-0.43,1.4-0.43,2.19c0,1.48,0.7,2.71,2.09,3.69c1.4,0.99,3.52,1.9,6.39,2.74c2.24,0.66,4.18,1.38,5.82,2.19
			c1.64,0.81,3,1.71,4.09,2.72c1.09,1.01,1.89,2.15,2.42,3.42c0.53,1.27,0.79,2.69,0.79,4.28c0,1.68-0.33,3.19-1,4.52
			c-0.67,1.34-1.61,2.48-2.84,3.42s-2.72,1.66-4.47,2.16c-1.75,0.5-3.7,0.75-5.85,0.75c-1.92,0-3.8-0.26-5.66-0.78
			c-1.86-0.52-3.53-1.3-5-2.35c-1.48-1.05-2.67-2.36-3.57-3.93s-1.35-3.41-1.35-5.52h6.92c0,1.26,0.23,2.33,0.67,3.24
			c0.45,0.9,1.06,1.64,1.83,2.22c0.77,0.57,1.69,0.99,2.75,1.26c1.06,0.26,2.2,0.39,3.42,0.39c2.4,0,4.21-0.49,5.43-1.46
			C734.79,411.16,735.39,409.87,735.39,408.27z"/>
	</g>
</g>
</svg>
